<svg xmlns="http://www.w3.org/2000/svg" version="1.1" xmlns:xlink="http://www.w3.org/1999/xlink" xmlns:svgjs="http://svgjs.dev/svgjs" width="1000" height="750" viewBox="0 0 1000 750"><rect width="1000" height="750" fill="#ffffff"></rect><g transform="matrix(0.834,0,0,0.834,82.49490057281673,247.55457100142223)"><svg viewBox="0 0 396 121" data-background-color="#ffffff" preserveAspectRatio="xMidYMid meet" height="305" width="1000" xmlns="http://www.w3.org/2000/svg" xmlns:xlink="http://www.w3.org/1999/xlink"><g id="tight-bounds" transform="matrix(1,0,0,1,0.24008861730862918,0.12402277011855745)"><svg viewBox="0 0 395.52 120.7519663813375" height="120.7519663813375" width="395.52"><g><svg viewBox="0 0 395.52 120.7519663813375" height="120.7519663813375" width="395.52"><g><svg viewBox="0 0 395.52 120.7519663813375" height="120.7519663813375" width="395.52"><g id="textblocktransform"><svg viewBox="0 0 395.52 120.7519663813375" height="120.7519663813375" width="395.52" id="textblock"><g><svg viewBox="0 0 395.52 120.7519663813375" height="120.7519663813375" width="395.52"><path d="M394.594 25.899C392.735 13.365 387.435 9.881 387.435 9.881 371.165-3.03 350.86-0.247 332.619 1.608 300.414 1.683 268.339 4.441 236.208 5.92 168.767 6.145 100.749 2.435 33.643 11.585 27.339 14.393-6.54 12.137 1.121 27.503 3.129 33.896 10.456 40.99 10.232 46.856 11.236 47.884 12.631 45.527 13.226 47.006 15.309 50.992 18.711 49.112 21.501 51.468 17.614 57.76 20.403 63 23.062 68.49 18.377 69.918 12.371 69.242 9.675 73.979 9.396 77.414 7.89 76.762 6.235 76.612 5.026 76.511 2.59 76.887 2.999 77.965 4.394 81.65-1.594 83.781 2.162 87.391-0.422 91.301 3.948 94.686 3.353 98.922 3.278 99.774 3.687 100.501 4.338 100.702 7.22 101.78 3.018 103.886 3.464 106.167 33.029 121.759 65.104 110.98 95.394 118.149 103.259 113.136 97.346 119.929 100.489 118.876 102.943 117.648 104.728 122.737 107.499 119.854 107.927 119.027 107.276 117.071 108.8 117.447 109.6 117.648 110.307 117.598 110.418 116.445 110.586 114.715 109.117 115.793 108.726 114.89 112.947 110.328 111.906 121.183 115.866 120.731 115.68 119.403 114.528 117.498 116.889 117.748 119.232 115.843 119.306 114.264 121.389 118.55 121.463 119.478 121.835 120.13 122.43 120.581 128.938 115.918 135.409 122.235 142.233 120.13 146.417 117.823 150.433 121.383 154.672 120.506 156.16 119.804 157.666 118.55 159.098 120.656 176.632 121.107 195.319 119.227 211.943 120.731 256.364 117.924 303.835 121.884 350.674 118.174 361.719 116.746 373.192 114.715 383.958 113.086 383.958 113.086 392.679 108.623 392.679 88.569S394.538 71.021 394.817 55.053C395.096 39.085 396.398 38.433 394.538 25.899Z" opacity="1" fill="#636365" data-fill-palette-color="tertiary"></path><g transform="matrix(1,0,0,1,55.76832,26.230666666666668)"><svg width="283.98335999999995" viewBox="0.186956524848938 -36.35769271850586 153.0530548095703 36.81638717651367" height="68.29063304800417" data-palette-color="#ffffff"><path d="M0.5-2.05L0.5-2.05Q-0.1-3.4 0.45-4.7L0.45-4.7 11.65-33.55Q12.05-34.5 12.9-35.1 13.75-35.7 14.8-35.75L14.8-35.75Q15.9-35.95 16.98-35.38 18.05-34.8 18.6-33.75L18.6-33.75 22.3-24.55 26.65-13.8 30.1-4.8Q30.65-3.45 30.08-2.13 29.5-0.8 28.13-0.25 26.75 0.3 25.4-0.28 24.05-0.85 23.5-2.15L23.5-2.15 20.6-8.75Q15-8.9 9.5-8.65L9.5-8.65 7.05-2.05Q6.45-0.75 5.1-0.18 3.75 0.4 2.4-0.18 1.05-0.75 0.5-2.05L0.5-2.05ZM12.4-15.8L12.4-15.8Q14.3-15.8 17.9-15.8L17.9-15.8 15.25-23 12.4-15.8ZM43.5-3.45L43.5-3.45Q43.45-2 42.42-1 41.4 0 39.95-0.03 38.5-0.05 37.5-1.07 36.5-2.1 36.5-3.55L36.5-3.55Q36.55-5.1 36.45-17.7L36.45-17.7Q36.4-24.45 36.65-29L36.65-29Q32.65-29 29.9-28.95L29.9-28.95Q28.45-28.95 27.42-29.95 26.4-30.95 26.37-32.4 26.35-33.85 27.35-34.88 28.35-35.9 29.8-35.95L29.8-35.95Q32.95-36 40.15-36.02 47.35-36.05 50.5-36.05L50.5-36.05Q51.95-36.05 53-35.05 54.05-34.05 54.07-32.63 54.1-31.2 53.1-30.13 52.1-29.05 50.7-29.05L50.7-29.05Q47.55-29.05 43.65-29L43.65-29Q43.4-24.65 43.45-17.75L43.45-17.75Q43.55-5 43.5-3.45L43.5-3.45ZM69.65 0.45L69.65 0.45Q65.95 0.3 63.05-1.2 60.15-2.7 58.37-5.1 56.6-7.5 55.65-10.33 54.7-13.15 54.65-16.2L54.65-16.2Q54.55-19.6 55.3-22.55 56.05-25.5 57.52-28.18 59-30.85 61.5-32.93 64-35 67.15-35.9L67.15-35.9Q68.4-36.2 70-36.2L70-36.2 71.05-36.2Q71.85-36.2 72.2-36.15 72.55-36.1 72.95-36.1L72.95-36.1Q74.55-36.05 75.52-35.95 76.5-35.85 78.1-35.3 79.7-34.75 81.25-33.7L81.25-33.7Q84.75-31.3 86.42-27.65 88.1-24 88.05-20.08 88-16.15 86.7-12.55L86.7-12.55Q85.75-9.95 84.17-7.63 82.6-5.3 80.45-3.43 78.3-1.55 75.5-0.5 72.7 0.55 69.65 0.45L69.65 0.45ZM69.95-6.4L69.95-6.4Q73.1-6.3 75.87-8.75 78.65-11.2 80.05-14.95L80.05-14.95Q81.6-19.15 80.77-22.55 79.95-25.95 77.35-27.75L77.35-27.75Q76.7-28.2 76.27-28.43 75.85-28.65 75.27-28.85 74.7-29.05 74.1-29.1 73.5-29.15 73.15-29.15 72.8-29.15 72.25-29.2L72.25-29.2Q71.7-29.25 71.45-29.33 71.2-29.4 70.5-29.4L70.5-29.4Q69.85-29.5 69.15-29.25L69.15-29.25Q65.6-27.95 63.57-24.58 61.55-21.2 61.65-16.45L61.65-16.45Q61.75-12.2 63.95-9.35 66.15-6.5 69.95-6.4L69.95-6.4ZM105.09 0.45L105.09 0.45Q101.24 0.55 98.14-0.75 95.04-2.05 93.24-4.55 91.44-7.05 91.44-10.35L91.44-10.35Q91.44-12.35 92.59-13.48 93.74-14.6 95.19-14.6L95.19-14.6Q96.64-14.6 97.54-13.58 98.44-12.55 98.44-11.3L98.44-11.3Q98.44-10.05 98.59-9.22 98.74-8.4 99.34-7.7L99.34-7.7Q100.49-6.3 105.19-6.3L105.19-6.3Q107.74-6.3 109.54-7.35 111.34-8.4 111.34-10.35L111.34-10.35Q111.34-11.65 109.24-12.85L109.24-12.85Q107.79-13.65 102.79-15.35L102.79-15.35Q97.34-17.15 94.59-19.53 91.84-21.9 91.84-26L91.84-26Q91.84-29.15 93.64-31.5 95.44-33.85 98.37-35.1 101.29-36.35 104.59-36.35L104.59-36.35Q107.99-36.45 111.14-35.25 114.29-34.05 116.22-31.83 118.14-29.6 118.14-26.8L118.14-26.8Q118.14-25.3 117.04-24.23 115.94-23.15 114.49-23.15L114.49-23.15Q113.49-23.15 112.54-23.75 111.59-24.35 111.34-25.25L111.34-25.25Q111.04-26.45 110.47-27.1 109.89-27.75 108.94-28.3L108.94-28.3Q107.69-29 106.69-29.3 105.69-29.6 103.84-29.6L103.84-29.6Q101.64-29.6 100.22-28.78 98.79-27.95 98.79-26.65L98.79-26.65Q98.79-25 100.42-23.95 102.04-22.9 104.99-21.95L104.99-21.95Q110.69-20.05 112.59-19L112.59-19Q115.74-17.25 117.04-15.3 118.34-13.35 118.34-10.4L118.34-10.4Q118.34-7.25 116.44-4.78 114.54-2.3 111.47-0.93 108.39 0.45 105.09 0.45L105.09 0.45ZM130.84-3.45L130.84-3.45Q130.84-2.05 129.79-1.03 128.74 0 127.32 0 125.89 0 124.87-1.05 123.84-2.1 123.84-3.55L123.84-3.55Q123.89-7.4 123.74-17.57 123.59-27.75 123.69-32.5L123.69-32.5Q123.74-33.95 124.79-34.93 125.84-35.9 127.29-35.88 128.74-35.85 129.72-34.8 130.69-33.75 130.69-32.3L130.69-32.3Q130.59-28.5 130.64-22.7L130.64-22.7Q140.89-23 146.19-23L146.19-23Q146.19-28.5 146.24-32.45L146.24-32.45Q146.29-33.9 147.31-34.9 148.34-35.9 149.79-35.88 151.24-35.85 152.24-34.83 153.24-33.8 153.24-32.35L153.24-32.35Q153.19-29.1 153.19-3.45L153.19-3.45Q153.19-2 152.17-0.98 151.14 0.05 149.69 0.05 148.24 0.05 147.22-0.98 146.19-2 146.19-3.45L146.19-3.45 146.19-16Q140.99-16.05 130.74-15.7L130.74-15.7Q130.84-7.5 130.84-3.45L130.84-3.45Z" opacity="1" transform="matrix(1,0,0,1,0,0)" fill="#ffffff" class="wordmark-text-0" data-fill-palette-color="quaternary" id="text-0"></path></svg></g></svg></g></svg></g></svg></g><g></g></svg></g><defs></defs></svg><rect width="395.52" height="120.7519663813375" fill="none" stroke="none" visibility="hidden"></rect></g></svg></g></svg>